<svg width="148" height="23" viewBox="0 0 148 23" fill="none" xmlns="http://www.w3.org/2000/svg">
<path d="M21.423 20.3634V20.7569L14.1972 22.408H13.8202L12.7338 19.3822C10.6747 21.3869 8.24081 22.408 5.88056 22.408C2.36026 22.408 0 20.4829 0 17.5742C0 13.0143 4.9436 9.94636 12.5085 9.67235V7.11725C12.5085 4.48253 10.4494 2.71434 7.30385 2.71434C5.24476 2.71434 5.32061 2.62535 3.48461 3.29281L3.33514 2.74245C5.95641 0.854818 7.79018 0 10.9357 0C15.5424 0 18.8731 2.51528 18.8731 6.32801V19.1058L21.423 20.3634ZM9.25363 19.6562C10.4538 19.6562 11.576 19.1456 12.5129 18.3985V10.4967C8.61783 10.8902 6.37135 12.9347 6.37135 16.1971C6.37135 18.2018 7.26816 19.6562 9.25363 19.6562Z" fill="black"/>
<path d="M19.5891 11.5974C19.5891 4.63945 24.12 0 30.7858 0C33.4807 0 36.1756 0.707273 37.938 1.65109L37.677 6.17344L37.2642 6.09381L31.1963 1.18035C27.9772 1.18035 26.1032 4.52234 26.1032 10.1431C26.1032 15.7263 28.5371 19.4594 32.508 19.4594C34.5292 19.4594 36.9274 18.8693 38.4622 17.888L38.837 18.3212C36.6262 20.5602 33.7439 22.408 29.3246 22.408C23.482 22.408 19.5891 18.0847 19.5891 11.5974Z" fill="black"/>
<path d="M60.472 19.9208V20.3634L53.6656 22.408H53.2886L52.1643 19.2627C49.9178 21.3447 47.2965 22.408 44.9006 22.408C41.2687 22.408 38.6475 19.8927 38.6475 16.08V4.74718V3.27408V2.58788L44.6396 1.3279H45.0121V15.2931C45.0121 17.8084 46.3997 19.4594 48.4967 19.4594C49.92 19.4594 51.0042 18.9887 51.9813 18.1222V3.41928L49.6969 2.04454V1.65109L57.9734 0H58.3482V19.1058L60.472 19.9208Z" fill="black"/>
<path d="M96.7684 21.6211V22.0145H85.6074V21.6211L87.8561 20.4407V7.11491C87.8561 4.59729 86.4328 2.9462 84.2978 2.9462C82.7987 2.9462 81.6766 3.49656 80.666 4.48019C80.8155 5.03055 80.8891 5.66055 80.8891 6.32801V20.4407L83.323 21.6211V22.0145H72.2757V21.6211L74.5222 20.4407V7.11491C74.5222 4.59729 73.0989 2.9462 70.964 2.9462C69.5786 2.9462 68.4922 3.41927 67.5574 4.24365V20.4009L69.9913 21.6211V22.0145H58.8325V21.6211L61.1905 20.4407V3.42162L58.9061 2.04454V1.65109L66.6205 0H66.9953L67.37 3.10545C69.6165 1.06091 72.1999 0 74.5601 0C77.2171 0 79.3163 1.29745 80.289 3.45909C82.647 1.21782 85.382 0 87.8895 0C91.5593 0 94.2185 2.51527 94.2185 6.33035V20.4033L96.7684 21.6211Z" fill="black"/>
<path d="M112.15 18.7709L112.487 19.2042C110.203 21.4454 109.315 22.408 104.708 22.408C98.8675 22.408 94.9724 18.0847 94.9724 11.5974C94.9724 4.63945 99.2401 0 105.569 0C111.3 0 115.081 4.16871 115.081 10.4194H101.527V10.8129C101.527 16.0027 103.998 19.4618 108.079 19.4618C110.176 19.4594 110.577 19.7545 112.15 18.7709ZM101.527 9.59272L108.755 9.23908C108.755 3.69563 107.63 1.18035 105.234 1.18035C102.836 1.18035 101.674 3.85255 101.527 9.59272Z" fill="black"/>
<path d="M138.486 21.6211V22.0145H127.213V21.6211L129.573 20.4407V7.11491C129.573 4.59729 128.112 2.9462 125.903 2.9462C124.404 2.9462 123.244 3.45675 122.236 4.32094V20.4384L124.779 21.6187V22.0122H113.509V21.6187L115.867 20.4384V3.42162L113.582 2.04454V1.65109L121.297 0H121.674L122.046 3.14527C124.369 1.10073 127.028 0 129.5 0C133.243 0 135.94 2.51527 135.94 6.33035V20.4431L138.486 21.6211Z" fill="black"/>
<path d="M144.672 22.3399C142.642 22.3399 141.345 21.012 141.345 18.9862C141.345 17.0307 142.642 15.7028 144.672 15.7028C146.702 15.7028 148 17.0307 148 18.9862C148 21.012 146.702 22.3399 144.672 22.3399Z" fill="#E5342A"/>
</svg>
